<svg width="547" height="534" viewBox="0 0 547 534" fill="none" xmlns="http://www.w3.org/2000/svg">
<path fill-rule="evenodd" clip-rule="evenodd" d="M273.418 0C122.434 0 0 122.405 0 273.418C0 394.217 78.3424 496.705 186.98 532.86C200.644 535.391 205.661 526.928 205.661 519.706C205.661 513.191 205.407 491.648 205.29 468.802C129.226 485.342 113.175 436.541 113.175 436.541C100.737 404.943 82.8165 396.535 82.8165 396.535C58.0089 379.566 84.6865 379.915 84.6865 379.915C112.142 381.843 126.598 408.094 126.598 408.094C150.985 449.889 190.561 437.806 206.164 430.819C208.623 413.152 215.704 401.085 223.524 394.257C162.793 387.348 98.9532 363.9 98.9532 259.133C98.9532 229.286 109.634 204.896 127.125 185.748C124.286 178.856 114.927 151.048 129.778 113.388C129.778 113.388 152.738 106.043 204.982 141.418C226.793 135.361 250.182 132.321 273.419 132.214C296.654 132.316 320.063 135.359 341.913 141.418C394.099 106.043 417.028 113.388 417.028 113.388C431.911 151.048 422.552 178.856 419.713 185.748C437.245 204.896 447.847 229.286 447.847 259.133C447.847 364.153 383.884 387.271 323.001 394.04C332.809 402.525 341.546 419.165 341.546 444.673C341.546 481.258 341.234 510.701 341.234 519.706C341.234 526.987 346.151 535.513 360.011 532.828C468.594 496.633 546.836 394.18 546.836 273.419C546.836 122.404 424.422 0 273.419 0" fill="#1a1a1a"/>
<path d="M103.56 392.566C102.956 393.927 100.82 394.336 98.8739 393.399C96.8845 392.507 95.7769 390.655 96.4186 389.292C97.009 387.897 99.1447 387.508 101.129 388.441C103.112 389.333 104.242 391.203 103.56 392.566ZM114.636 404.919C113.332 406.128 110.778 405.566 109.053 403.656C107.26 401.75 106.929 399.196 108.252 397.974C109.597 396.765 112.069 397.331 113.857 399.237C115.65 401.166 115.999 403.697 114.636 404.919ZM125.415 420.664C123.741 421.832 120.997 420.741 119.302 418.31C117.627 415.874 117.627 412.958 119.341 411.79C121.035 410.622 123.738 411.675 125.454 414.085C127.125 416.557 127.125 419.473 125.415 420.664ZM140.183 435.879C138.685 437.531 135.493 437.088 133.156 434.833C130.766 432.628 130.101 429.499 131.599 427.846C133.12 426.191 136.33 426.655 138.684 428.892C141.058 431.093 141.777 434.244 140.183 435.879ZM160.559 444.712C159.891 446.855 156.824 447.823 153.726 446.913C150.632 445.976 148.61 443.473 149.233 441.308C149.878 439.148 152.966 438.138 156.084 439.112C159.172 440.045 161.202 442.535 160.559 444.713V444.712ZM182.935 446.35C183.012 448.605 180.386 450.474 177.135 450.514C173.867 450.591 171.219 448.762 171.182 446.543C171.182 444.267 173.754 442.42 177.017 442.359C180.268 442.295 182.935 444.112 182.935 446.35ZM203.757 442.807C204.145 445.002 201.887 447.262 198.659 447.864C195.485 448.448 192.546 447.085 192.143 444.908C191.749 442.653 194.045 440.394 197.219 439.81C200.452 439.25 203.345 440.571 203.757 442.807Z" fill="white"/>
</svg>
