<svg width="411" height="413" viewBox="0 0 411 413" fill="none" xmlns="http://www.w3.org/2000/svg">
<path d="M278.321 42.562H21.281C9.51901 42.562 0 33.0425 0 21.281C0 9.5195 9.51951 0 21.281 0H278.321C290.083 0 299.602 9.5195 299.602 21.281C299.602 33.039 290.083 42.562 278.325 42.562H278.321Z" fill="#1A1A1A"/>
<path d="M389.201 227.362H21.281C9.51901 227.362 0 217.842 0 206.081C0 194.319 9.51951 184.8 21.281 184.8L389.201 184.804C400.963 184.804 410.482 194.323 410.482 206.085C410.478 217.843 400.959 227.362 389.201 227.362V227.362Z" fill="#1A1A1A"/>
<path d="M278.321 412.162H21.281C9.51901 412.162 0 402.642 0 390.881C0 379.119 9.51951 369.6 21.281 369.6H278.321C290.083 369.6 299.602 379.119 299.602 390.881C299.602 402.642 290.083 412.162 278.325 412.162H278.321Z" fill="#1A1A1A"/>
</svg>
